<?xml version="1.0" standalone="no"?>
<!DOCTYPE svg PUBLIC "-//W3C//DTD SVG 20010904//EN"
 "http://www.w3.org/TR/2001/REC-SVG-20010904/DTD/svg10.dtd">
<svg version="1.0" xmlns="http://www.w3.org/2000/svg"
 width="1920.000000pt" height="1920.000000pt" viewBox="0 0 1920.000000 1920.000000"
 preserveAspectRatio="xMidYMid meet">
<metadata>
Created by potrace 1.14, written by Peter Selinger 2001-2017
</metadata>
<g transform="translate(0.000000,1920.000000) scale(0.100000,-0.100000)"
fill="#000000" stroke="none">
<path d="M9238 18065 c-1 -1 -59 -6 -128 -10 -69 -3 -141 -8 -160 -10 -19 -2
-73 -6 -120 -9 -47 -4 -119 -11 -160 -16 -41 -5 -102 -12 -135 -15 -33 -4 -67
-8 -75 -11 -8 -2 -35 -6 -60 -9 -52 -7 -62 -8 -190 -30 -52 -9 -111 -18 -130
-21 -19 -3 -51 -9 -70 -14 -19 -5 -53 -11 -75 -15 -22 -3 -56 -10 -75 -15 -19
-5 -52 -12 -73 -15 -55 -9 -410 -100 -567 -145 -216 -62 -498 -157 -589 -197
-18 -8 -39 -16 -45 -18 -6 -1 -24 -7 -41 -14 -16 -6 -43 -16 -60 -22 -16 -6
-43 -17 -60 -24 -16 -7 -68 -29 -115 -48 -241 -99 -648 -299 -850 -417 -25
-14 -52 -29 -60 -33 -8 -5 -24 -13 -35 -20 -11 -7 -56 -34 -100 -60 -168 -100
-508 -320 -570 -369 -5 -5 -68 -52 -140 -105 -409 -303 -763 -619 -1130 -1005
-60 -64 -130 -140 -155 -169 -25 -29 -56 -64 -70 -80 -14 -15 -32 -35 -40 -45
-9 -11 -54 -64 -100 -120 -285 -339 -605 -806 -850 -1239 -109 -193 -296 -563
-354 -702 -14 -35 -37 -87 -51 -115 -64 -139 -213 -542 -280 -758 -20 -63 -45
-143 -56 -177 -30 -99 -97 -354 -135 -523 -44 -196 -37 -162 -78 -395 -37
-216 -42 -244 -51 -320 -3 -27 -8 -61 -10 -75 -9 -53 -20 -147 -30 -265 -3
-38 -8 -83 -10 -100 -13 -104 -20 -341 -19 -690 0 -419 5 -540 29 -795 19
-194 27 -275 31 -293 2 -12 6 -42 9 -67 10 -77 15 -114 20 -140 2 -14 7 -43
10 -65 8 -53 13 -84 31 -185 22 -119 23 -122 30 -155 4 -16 8 -39 10 -50 2
-11 5 -27 7 -35 2 -8 7 -33 11 -55 14 -69 103 -426 131 -520 15 -49 35 -119
46 -155 68 -236 255 -735 355 -948 19 -41 34 -76 34 -78 0 -8 210 -430 258
-519 216 -399 552 -907 806 -1220 77 -95 181 -220 208 -250 32 -34 33 -39 14
-120 -13 -55 -23 -120 -32 -200 -5 -44 -4 -303 1 -355 8 -80 16 -133 36 -235
26 -131 24 -120 54 -216 77 -247 167 -429 298 -602 112 -149 228 -248 374
-321 107 -53 157 -65 273 -66 220 -3 445 149 1010 680 137 128 142 133 370
350 143 136 212 201 419 399 25 23 73 68 106 99 33 30 116 108 185 172 69 64
137 128 151 141 49 45 252 234 268 250 9 8 81 73 160 145 80 71 154 138 166
149 11 11 45 42 75 68 30 27 73 65 95 85 98 88 231 209 380 342 140 126 198
179 265 240 9 8 65 60 126 114 165 150 451 442 524 534 71 91 133 198 145 251
28 128 -30 226 -150 256 -71 17 -136 24 -390 40 -49 3 -117 8 -150 11 -33 2
-87 6 -120 9 -33 2 -80 6 -105 9 -25 3 -70 8 -100 11 -88 9 -142 15 -180 21
-19 2 -53 7 -75 10 -33 4 -251 39 -304 49 -9 1 -36 6 -61 10 -25 3 -58 10 -75
15 -16 5 -47 11 -67 14 -21 3 -81 15 -135 27 -54 12 -109 23 -123 26 -14 2
-61 13 -105 24 -44 12 -89 23 -100 25 -11 2 -67 17 -125 33 -151 43 -193 54
-209 57 -8 2 -47 11 -85 21 -84 21 -311 25 -364 6 l-33 -12 -47 65 c-155 214
-341 540 -470 821 -81 179 -198 497 -243 663 -7 25 -14 50 -15 55 -8 25 -35
133 -40 155 -2 14 -9 39 -14 55 -9 30 -45 210 -55 275 -3 19 -8 46 -10 60 -3
14 -7 45 -10 70 -3 25 -7 52 -10 60 -2 8 -7 48 -10 87 -3 40 -8 81 -10 91 -18
95 -27 700 -12 872 11 124 15 165 23 220 3 25 7 59 9 75 2 17 11 71 19 120 19
111 23 131 40 220 3 11 10 43 16 70 6 28 13 57 15 66 22 106 156 543 185 604
5 11 30 72 56 135 46 115 193 422 257 535 326 580 746 1065 1312 1516 89 71
335 240 445 306 341 204 650 349 989 463 154 51 416 126 506 144 17 4 41 9 55
12 34 7 65 13 93 18 12 2 33 7 47 10 53 12 239 40 340 51 117 12 139 14 255
21 208 14 649 8 785 -10 14 -2 54 -6 90 -10 36 -4 76 -9 90 -11 14 -2 45 -7
70 -10 25 -3 56 -8 70 -10 14 -3 41 -7 60 -10 101 -16 211 -39 350 -75 85 -22
166 -42 180 -46 14 -3 34 -9 45 -13 11 -5 67 -23 125 -41 102 -31 367 -132
482 -184 204 -91 522 -264 688 -375 99 -67 224 -154 255 -178 303 -240 360
-290 565 -492 69 -68 159 -154 201 -190 72 -63 237 -181 252 -181 4 0 24 -10
45 -23 53 -33 213 -101 310 -131 110 -34 226 -58 342 -71 53 -6 291 -6 335 0
17 2 52 6 80 10 27 4 61 8 75 10 14 2 63 13 110 25 880 225 1441 1087 1289
1982 -16 96 -17 100 -44 193 -89 305 -225 527 -478 783 -314 319 -646 610
-1003 879 -126 95 -343 243 -569 388 -401 258 -996 554 -1468 732 -327 123
-859 285 -1077 329 -14 3 -50 11 -80 19 -51 13 -244 51 -300 60 -14 2 -74 13
-135 24 -60 11 -130 22 -155 26 -25 3 -62 8 -83 11 -46 7 -67 10 -142 18 -33
4 -67 9 -75 11 -8 2 -51 7 -95 10 -44 4 -91 8 -105 11 -14 2 -70 7 -125 10
-55 3 -120 8 -145 10 -51 6 -856 14 -862 9z"/>
<path d="M16288 11465 c-2 -2 -37 -6 -78 -9 -88 -8 -135 -14 -170 -21 -13 -2
-42 -7 -63 -10 -21 -4 -91 -22 -155 -41 -430 -130 -784 -415 -1014 -816 -74
-129 -161 -354 -183 -477 -2 -14 -7 -39 -11 -54 -18 -82 -24 -195 -29 -492 -3
-154 -7 -296 -9 -315 -2 -19 -7 -66 -11 -105 -3 -38 -8 -81 -10 -95 -2 -14 -6
-52 -10 -85 -3 -33 -8 -69 -10 -80 -2 -11 -7 -36 -10 -55 -2 -19 -6 -44 -9
-55 -2 -11 -7 -40 -11 -65 -8 -50 -8 -47 -30 -150 -60 -282 -184 -671 -290
-905 -60 -135 -83 -184 -131 -278 -263 -525 -619 -995 -1074 -1423 -91 -84
-264 -231 -330 -279 -30 -21 -57 -42 -60 -45 -3 -3 -33 -26 -67 -50 -322 -235
-724 -455 -1088 -597 -106 -42 -303 -113 -325 -118 -8 -2 -69 -19 -135 -39
-175 -52 -405 -101 -655 -141 -19 -3 -46 -7 -60 -10 -14 -3 -52 -7 -85 -10
-33 -3 -78 -7 -100 -9 -85 -9 -195 -16 -335 -21 -80 -3 -163 -8 -185 -11 -22
-2 -58 -7 -80 -10 -296 -38 -615 -176 -850 -367 -285 -232 -498 -562 -588
-912 -46 -177 -52 -225 -52 -425 0 -192 5 -247 35 -390 106 -502 457 -956 915
-1183 92 -46 256 -110 310 -122 17 -4 41 -11 55 -15 14 -5 43 -12 65 -15 22
-4 67 -11 100 -17 102 -19 639 -14 775 7 14 2 68 7 120 10 52 3 102 8 110 10
8 2 47 6 85 10 75 6 135 13 175 20 14 2 45 7 70 10 233 30 663 116 950 191
335 87 816 248 1078 360 360 154 737 340 972 478 36 21 79 46 95 56 183 104
539 340 745 493 130 97 412 321 455 362 11 11 35 32 54 47 28 22 79 68 220
196 161 146 467 464 643 668 329 382 710 917 918 1289 12 22 42 74 65 115 23
41 57 102 75 135 39 72 220 433 220 439 0 2 15 37 34 78 63 134 214 504 236
576 4 15 24 72 44 127 72 198 205 650 231 785 2 12 7 29 9 38 3 9 15 60 26
112 46 216 59 284 65 327 2 12 6 34 9 50 4 15 8 42 10 60 3 18 7 40 10 50 2
10 7 41 11 68 3 28 12 97 20 155 8 58 16 128 20 155 3 28 8 68 10 90 10 82 15
132 20 220 4 50 8 113 11 140 3 28 7 201 11 385 5 280 3 356 -11 464 -9 71
-19 133 -21 137 -3 3 -7 24 -11 45 -3 22 -22 89 -41 149 -165 514 -564 927
-1068 1104 -88 31 -212 65 -275 75 -19 3 -46 8 -60 11 -14 3 -70 8 -125 11
-55 3 -115 7 -132 8 -18 2 -34 2 -35 1z"/>
</g>
</svg>
