<?xml version="1.0" standalone="no"?>
<!DOCTYPE svg PUBLIC "-//W3C//DTD SVG 20010904//EN"
 "http://www.w3.org/TR/2001/REC-SVG-20010904/DTD/svg10.dtd">
<svg version="1.0" xmlns="http://www.w3.org/2000/svg"
 width="1920.000000pt" height="1920.000000pt" viewBox="0 0 1920.000000 1920.000000"
 preserveAspectRatio="xMidYMid meet">
<metadata>
Created by potrace 1.14, written by Peter Selinger 2001-2017
</metadata>
<g transform="translate(0.000000,1920.000000) scale(0.100000,-0.100000)"
fill="#000000" stroke="none">
<path d="M2638 17333 l-1968 -3 0 -7745 0 -7745 3048 5 c1676 3 5690 7 8920
10 3229 3 5872 8 5872 11 0 3 -60 112 -134 242 -314 555 -799 1414 -1345 2382
-67 118 -163 290 -214 382 l-92 167 -1957 3 -1957 3 113 159 c731 1027 1164
2192 1295 3487 18 178 38 495 44 694 l2 80 56 -100 c31 -55 193 -347 359 -650
474 -859 662 -1197 1202 -2165 421 -754 591 -1055 607 -1080 10 -14 66 -114
126 -222 l109 -198 849 0 849 0 -67 73 c-369 396 -1185 1568 -3730 5352 -126
187 -296 439 -379 560 l-150 220 -38 165 c-387 1648 -1316 3071 -2751 4214
-1212 965 -2613 1522 -4177 1660 -460 41 -908 45 -4492 39z m3562 -3437 c350
-36 767 -111 880 -157 17 -7 96 -116 248 -342 410 -611 1111 -1650 1252 -1857
745 -1094 1304 -1900 1447 -2089 32 -43 33 -46 33 -142 0 -53 -7 -181 -15
-284 -73 -894 -315 -1609 -735 -2170 -236 -315 -482 -542 -870 -800 -682 -455
-1402 -703 -2275 -785 -166 -16 -522 -24 -510 -13 6 6 123 86 260 178 836 564
1519 1030 2025 1383 627 438 1162 832 1370 1007 106 90 233 222 227 238 -2 7
-23 11 -53 11 -175 -5 -1040 -422 -2684 -1293 -190 -101 -358 -191 -375 -201
-16 -10 -176 -97 -355 -192 -179 -96 -404 -218 -500 -270 -301 -164 -620 -339
-747 -409 l-123 -67 0 4140 0 4140 673 -5 c522 -4 707 -8 827 -21z m2617
-1096 c221 -198 464 -487 622 -742 251 -402 441 -905 535 -1418 28 -155 49
-300 43 -306 -3 -4 -80 139 -285 531 -63 121 -161 306 -217 410 -57 105 -168
312 -248 460 -228 424 -465 863 -576 1064 -55 101 -101 186 -101 188 0 8 103
-77 227 -187z"/>
<path d="M18478 5028 c17 -8 26 -8 34 0 9 9 4 12 -22 11 -33 0 -34 -1 -12 -11z"/>
</g>
</svg>
